<svg xmlns="http://www.w3.org/2000/svg" viewBox="0 0 284.12 107.35"><defs><style>.cls-1{fill:#289e5d;}.cls-2{fill:#cfc6b7;}.cls-3{fill:#00a0e8;}.cls-4{fill:#f5a900;}.cls-5{fill:#e51718;}.cls-6{fill:#d5ad58;}.cls-7{fill:#00ac94;}.cls-8{fill:#937eb8;}.cls-9{fill:#aa5a23;}.cls-10{font-size:24px;font-family:BrushScriptMT, Brush Script MT;}</style></defs><title>Asset 1ds</title><g id="Layer_2" data-name="Layer 2"><g id="Layer_1-2" data-name="Layer 1"><path class="cls-1" d="M132.2,24.6a3.3,3.3,0,1,1-3.3-3.3,3.33,3.33,0,0,1,3.3,3.3m-5.2,0a1.8,1.8,0,1,0,1.8-1.8,1.79,1.79,0,0,0-1.8,1.8"/><path class="cls-2" d="M66.1,0a3.33,3.33,0,0,1,3.3,3.3,3.3,3.3,0,0,1-6.6,0A3.33,3.33,0,0,1,66.1,0m0,5.1a1.8,1.8,0,1,0-1.8-1.8,1.79,1.79,0,0,0,1.8,1.8"/><path class="cls-3" d="M99.2,5.4a3.3,3.3,0,1,1-3.3,3.3,3.2,3.2,0,0,1,3.3-3.3m0,5.1a1.8,1.8,0,1,0-1.8-1.8,1.79,1.79,0,0,0,1.8,1.8"/><path class="cls-4" d="M0,24.6a3.33,3.33,0,0,1,3.3-3.3,3.3,3.3,0,1,1,0,6.6A3.33,3.33,0,0,1,0,24.6m5.1,0a1.8,1.8,0,1,0-1.8,1.8,1.79,1.79,0,0,0,1.8-1.8"/><path class="cls-5" d="M33,5.4a3.3,3.3,0,1,1-3.3,3.3A3.2,3.2,0,0,1,33,5.4m0,5.1a1.8,1.8,0,1,0-1.8-1.8A1.79,1.79,0,0,0,33,10.5"/><path class="cls-6" d="M172.7,93.7a3.35,3.35,0,1,1,3.8,2.7,3.34,3.34,0,0,1-3.8-2.7m5.1-.8a1.85,1.85,0,0,0-2-1.5,1.79,1.79,0,0,0-1.5,2,1.85,1.85,0,0,0,2,1.5,1.77,1.77,0,0,0,1.5-2"/><path class="cls-7" d="M242,107.2a3.3,3.3,0,1,1,2.7-3.8,3.29,3.29,0,0,1-2.7,3.8m-.8-5.1a1.77,1.77,0,1,0,2,1.5,1.77,1.77,0,0,0-2-1.5"/><path class="cls-8" d="M208.4,107.3a3.3,3.3,0,1,1,2.7-3.8,3.34,3.34,0,0,1-2.7,3.8m-.8-5.2a1.77,1.77,0,1,0,2,1.5,1.79,1.79,0,0,0-2-1.5"/><path class="cls-9" d="M273.8,96.4a3.3,3.3,0,1,1,2.7-3.8,3.22,3.22,0,0,1-2.7,3.8m-.8-5a1.77,1.77,0,1,0,2,1.5,1.67,1.67,0,0,0-2-1.5"/><text class="cls-10" transform="translate(16.8 51.3)">slogan line 1 slogan line 1 </text><text class="cls-10" transform="translate(51 75.3)">slogan line 2 slo slogan line 2</text></g></g></svg>