<svg xmlns="http://www.w3.org/2000/svg" viewBox="0 0 72 55.56"><defs><style>.cls-1,.cls-3{fill:#1baad1;}.cls-2{fill:#fff;}.cls-3{font-size:12px;font-family:STHeitiSC-Light, Heiti SC;font-weight:300;}</style></defs><title>Asset 4</title><g id="Layer_2" data-name="Layer 2"><g id="Layer_1-2" data-name="Layer 1"><path class="cls-1" d="M31.7,0A19.51,19.51,0,0,1,51.3,19.3a19.6,19.6,0,0,1-39.2,0A19.44,19.44,0,0,1,31.7,0Z"/><path class="cls-2" d="M14.4,19.3a17.3,17.3,0,0,0,34.6,0,17.3,17.3,0,0,0-34.6,0h0"/><path class="cls-1" d="M41.2,13.9a2.43,2.43,0,0,0-2.4,2.4,3.55,3.55,0,0,0,.2,1l-3.1,1.3-3.1-4.8a2.39,2.39,0,0,0,1.5-2.2,2.4,2.4,0,1,0-4.8,0,2.43,2.43,0,0,0,1.4,2.1l-3,4.7-3.4-1.3a2.92,2.92,0,0,0,.2-.9,2.4,2.4,0,1,0-2.4,2.4,4.33,4.33,0,0,0,.5-.1l1.8,7.3v2.8a.86.86,0,0,0,.8.8h13a.79.79,0,0,0,.8-.8V25.8l1.6-7.3c.2,0,.3.1.5.1a2.43,2.43,0,0,0,2.4-2.4A2.59,2.59,0,0,0,41.2,13.9Zm-9.4-3.1a.79.79,0,0,1,.8.8.86.86,0,0,1-.8.8.79.79,0,0,1-.8-.8A.86.86,0,0,1,31.8,10.8ZM21.4,16.3a.86.86,0,0,1,.8-.8.79.79,0,0,1,.8.8.8.8,0,0,1-1.6,0Zm6.4,3.8a.91.91,0,0,0,1-.3l3-4.7,3.1,4.8a.91.91,0,0,0,1,.3L39,18.9l-1.2,5.6h-12l-1.4-5.6Zm-1.7,7.8V26.5H37.5v1.4ZM41.2,17.1a.79.79,0,0,1-.8-.8.86.86,0,0,1,.8-.8.8.8,0,1,1,0,1.6Z"/><text class="cls-3" transform="translate(0 52.08)">最近ニュース</text></g></g></svg>