<svg xmlns="http://www.w3.org/2000/svg" viewBox="0 0 420 236"><title>あなたもチャレンジ! Find my Tokyo.</title><desc>メトロでひびきあう、ひとりひとりの東京。</desc><path d="M202.2 152.3c0 1.8-1.5 3.3-3.3 3.3s-3.3-1.5-3.3-3.3c0-1.8 1.5-3.3 3.3-3.3s3.3 1.5 3.3 3.3m-5.2 0c0 1 .8 1.8 1.8 1.8s1.8-.8 1.8-1.8-.8-1.8-1.8-1.8-1.8.8-1.8 1.8" fill="#289e5d"></path><path d="M136.1 127.7c1.8 0 3.3 1.5 3.3 3.3s-1.5 3.3-3.3 3.3-3.3-1.5-3.3-3.3 1.5-3.3 3.3-3.3m0 5.1c1 0 1.8-.8 1.8-1.8s-.8-1.8-1.8-1.8-1.8.8-1.8 1.8.8 1.8 1.8 1.8" fill="#cfc6b7"></path><path d="M169.2 133.1c1.8 0 3.3 1.5 3.3 3.3s-1.5 3.3-3.3 3.3-3.3-1.5-3.3-3.3c-.1-1.8 1.4-3.3 3.3-3.3m0 5.1c1 0 1.8-.8 1.8-1.8s-.8-1.8-1.8-1.8-1.8.8-1.8 1.8.8 1.8 1.8 1.8" fill="#00a0e8"></path><path d="M70 152.3c0-1.8 1.5-3.3 3.3-3.3s3.3 1.5 3.3 3.3c0 1.8-1.5 3.3-3.3 3.3s-3.3-1.5-3.3-3.3m5.1 0c0-1-.8-1.8-1.8-1.8s-1.8.8-1.8 1.8.8 1.8 1.8 1.8 1.8-.8 1.8-1.8" fill="#f5a900"></path><path d="M103 133.1c1.8 0 3.3 1.5 3.3 3.3s-1.5 3.3-3.3 3.3-3.3-1.5-3.3-3.3c-.1-1.8 1.4-3.3 3.3-3.3m0 5.1c1 0 1.8-.8 1.8-1.8s-.8-1.8-1.8-1.8-1.8.8-1.8 1.8.8 1.8 1.8 1.8" fill="#e51718"></path><path d="M242.7 221.4c-.3-1.8.9-3.5 2.8-3.8 1.8-.3 3.5.9 3.8 2.7.3 1.8-.9 3.5-2.8 3.8-1.7.3-3.5-.9-3.8-2.7m5.1-.8c-.2-1-1.1-1.6-2-1.5-1 .1-1.6 1.1-1.5 2 .2 1 1.1 1.6 2 1.5 1-.2 1.7-1.1 1.5-2" fill="#d5ad58"></path><path d="M312 234.9c-1.8.3-3.5-.9-3.8-2.7-.3-1.8.9-3.5 2.7-3.8 1.8-.3 3.5.9 3.8 2.7s-.9 3.5-2.7 3.8m-.8-5.1c-1 .2-1.6 1.1-1.5 2 .2 1 1.1 1.6 2 1.5 1-.2 1.6-1.1 1.5-2-.2-1-1.1-1.7-2-1.5" fill="#00ac94"></path><path d="M278.4 235c-1.8.3-3.5-.9-3.8-2.7-.3-1.8.9-3.5 2.7-3.8 1.8-.3 3.5.9 3.8 2.7.3 1.7-.9 3.5-2.7 3.8m-.8-5.2c-1 .2-1.6 1.1-1.5 2 .2 1 1.1 1.6 2 1.5 1-.2 1.6-1.1 1.5-2-.1-1-1.1-1.6-2-1.5" fill="#937eb8"></path><path d="M343.8 224.1c-1.8.3-3.5-.9-3.8-2.7s.9-3.5 2.7-3.8c1.8-.3 3.5.9 3.8 2.7.4 1.8-.9 3.5-2.7 3.8m-.8-5c-1 .2-1.6 1.1-1.5 2 .2 1 1.1 1.6 2 1.5 1-.2 1.6-1.1 1.5-2-.1-1-1-1.7-2-1.5" fill="#aa5a23"></path><path fill="#231815" d="M164.1 172.8c-1.5 1.7-2.4 3.5-2.8 5.5 0 .9.2 1.7.7 2.4.8.9 1.8 1.4 3.1 1.4.4 0 .6-.2.5-.3v-.4l-.7-.6-.4.1c-.6.1-1.2-.1-1.6-.4l-.5-1.1v-1c.1-.7.3-1.3.7-1.9.8-1.7 2.1-3.1 3.7-4.2l-.2-.6-.5-.3c-2.3.3-4.6.7-6.8 1.2h-1.2l-.1.2c0 .4.2.7.6.9 1.8-.2 3.5-.5 5.2-.9h.3zm22.5 2.3l-.5-.3c-.4 0-.6.1-.8.3l.1.5c0 1-.2 1.8-.7 2.6-.4.9-1 1.7-1.8 2.4l-.5-.2-.5-1.1v-2.1c.1-1.7.6-3.2 1.5-4.5l-.2-.6-.3-.2c-1.9.8-3.7 1.6-5.5 2.5v.3l.7.6c1-.4 1.9-.9 2.8-1.5h.3l-.5 3v2.4l.3 1c.4.6.8 1 1.4 1.4v.2h.8c.6-.3 1.1-.6 1.6-1.1.7-1 1.2-2.1 1.6-3.2.8.8 1.6 1.5 2.4 2.2l.9-.3v-.3l-1.1-.9c-.9-1-1.5-2-2-3.1zm-15.7-6.4c-.3-.1-.5 0-.6.2l.5 2.8v1.6c.1.2.2.5.5.7l.4-.1.2-.4V171c-.1-.7-.3-1.4-.5-2l-.5-.3zm-2.7 33.9l-.3.3c-.8.6-1.7 1.1-2.7 1.5h-.7c-.4-.1-.7-.4-.9-.8v-.4c.7-1.2 1.6-2.3 2.6-3.3l.1-.3h.2l1.3-1.1-.1-.5-.6-.3c-1.1.7-2.2 1.6-3.1 2.7l-.3-.1-2.4-4.9-.6-.5c-.3 0-.6 0-.8.2 1 2.1 2.1 4.1 3.3 6.2l-.8 1.3v1.1c.4.8.9 1.4 1.7 1.8v.1h1.5c1.1-.4 2.3-1 3.4-1.6l.1-.3.3-.2-.5-.9h-.7zm17.1-4.1l-.1-.3v-1c0-.9-.2-1.6-.6-2.4l-.8-.3-.3.2c.2.7.4 1.4.5 2.2v5.1l-.1.1v1.7c0 .4-.1.8-.3 1.1l.4.9.8.2.3-.9v-2.3l.1-.1v-1.1l.1-.1-.1-.3v-1.1l.1-.1-.1-.3.1-1.2zm-5.1-.1v-1.1l.5-2.5-.1-.3-.5-.3-.5.1-.7 4.2v1.6l.4 1.4.6.4h.3l.3-.5c0-.4-.1-.7-.4-.9l.1-2.1zm27-23.2l.4-.1c-.3-1.6-.7-3.2-1.1-4.7l-.6-.4c-.3 0-.5.1-.7.3l1.2 4.1c.2.4.4.6.8.8zm52.8-3.8l.5.4v-.1h.7l.2-.4v-.4l-3.3-2.7-.7.1-.2.4 2.4 2 .4.7zm-37.1 11.4c.3 0 .5 0 .6-.2 0-.5-.2-.8-.6-1.1-1.6-1.3-3.2-2.5-4.9-3.6l-.5.2v.5c1.7 1.5 3.5 2.9 5.4 4.2zm52.2-1c.3 0 .5-.1.6-.2-.3-.7-.7-1.4-1.2-2-.2-.9-.6-1.6-1.2-2.1-.4 0-.7 0-.9.2l1.9 3.8.8.3zM130 176l-.9-.2h-1l-.8-.2-.3.1c-.6 0-1.2-.1-1.7-.3v-1.6l.1-.1v-2.6l.1-.1v-.8l-.6-.5c-.4-.1-.7 0-.9.3l.1.4v4.3l-.1.1v1l-.1.1.1.3v3.3l.2.9-.2 1.2.1.3 1.1.5.4-.5v-1l-.2-.5v-1.6l-.1-.1v-1.9l.2-.2h1.1l.1.1h1.4l.1.1h1.1l.1.1h1.9l.4-.2v-.3l-.5-.4H130zm74 22.9l-.5-.3c-.4 0-.6.1-.8.3l.1.5c0 1-.2 1.8-.7 2.6-.4.9-1 1.7-1.8 2.4l-.5-.2-.5-1.1V201c.1-1.7.6-3.2 1.5-4.5l-.2-.6-.3-.2c-1.9.8-3.7 1.6-5.5 2.5v.3l.7.6c1-.4 1.9-.9 2.8-1.5h.3l-.5 3v2.4l.3 1c.4.6.8 1 1.4 1.4v.2h.8c.6-.3 1.1-.6 1.6-1.1.7-1 1.2-2.1 1.6-3.2.8.8 1.6 1.5 2.4 2.2l.9-.3v-.3l-1.1-.9c-.8-1-1.5-2-2-3.1zm-54.9 0l-.5-.3c-.4 0-.6.1-.8.3l.1.5c0 1-.2 1.8-.7 2.6-.4.9-1 1.7-1.8 2.4l-.5-.2-.5-1.1V201c.1-1.7.6-3.2 1.5-4.5l-.2-.6-.3-.2c-1.9.8-3.7 1.6-5.5 2.5v.3l.7.6c1-.4 1.9-.9 2.8-1.5h.3l-.5 3v2.4l.3 1c.4.6.8 1 1.4 1.4v.2h.8c.6-.3 1.1-.6 1.6-1.1.7-1 1.2-2.1 1.6-3.2.8.8 1.6 1.5 2.4 2.2l.9-.3v-.3l-1.1-.9c-.9-1-1.5-2-2-3.1zm-8.2-20.3l.1 1.1.1.1v.9c.1.3.4.6.7.9l.6-.3.2-.3 3-.6h1l.1-.1h1.9l.1-.1.7.2-.1.3.4.6.9-.1c0-.4.2-.9.5-1.3l-.5-.9v-.9l.1-.1-.1-.3v-4.4l.1-.1v-.8l-.6-.4h-3.5c-1.3.2-2.6.4-3.9.8h-.5l-.6-.5c-.3 0-.6 0-.8.2v1.1l.1.1v4.9zm1.1-4.3c1.8-.7 3.5-1.1 5.4-1.3h.9l.1-.1c.4 0 .7 0 1 .2v3l.1.1-.1.3.1.7v1.4l.1.1-.1.5h-.5l-.8-.1-.9.1h-1.2l-.1.1h-1.1l-1.3.3h-1.3l-.2-1.1V177l.1-.1-.1-.3v-1.3l-.1-.1v-.9zm25.6-2.4l.5 1.7.4.3h.5l.2-.3-.4-2v-1l-.3-1.5-.6-.4c-.3-.1-.6 0-.7.2l.4 2v1zm-55.1-2.2l-.5-.3-.5.1c-1.4 2-2.6 4-3.5 6.1l-3.3-1.2c-.3 0-.6 0-.8.2l.2.6c1.1.4 2.2.8 3.3 1.3-1 1.8-1.9 3.5-2.6 5.4v.4l.7.5.3-.2c.6-1.9 1.4-3.8 2.5-5.6l3.4 1.5.8-.3v-.3l-3.6-1.8c1-2.1 2.2-4 3.7-5.9l-.1-.5zm92.2 4.5v1l-.5 1.1c-.8 1.4-1.8 2.7-3.1 3.9l-.7-.2-.3-.6c0-2.7.9-5 2.7-6.9l-.1-.4-.5-.2c-2.2.7-4.3 1.6-6.4 2.5v.4l.7.6c1.3-.4 2.5-.9 3.6-1.6h.2c-.6 1.3-1.1 2.7-1.3 4.1v1.9l.5.9c.3.4.7.7 1.2.8v-.2h1.1l.6-.4c1.3-1.3 2.3-2.6 3-4.1l.3.1c.4 1.1.8 2.1 1.2 3.2l.8.8.7-.5c-1-2.2-1.9-4.3-2.8-6.4-.3 0-.7 0-.9.2zm91.5 20c1-.2 1.9-.3 2.8-.6l-.1-.4-.6-.3-3.2.5-.8-.1c-.1-.9-.4-1.7-.7-2.3l-.6-.2-.6.2.6 1.7-.1 1c-2.3.4-4.4 1.1-6.3 2.1v.1l.6.5c2.7-1.1 5.6-1.9 8.7-2.3l.3.1zm-20.8 7.2l.2-.5 3.5-.7.2-.3-.6-.7.3-1.3-.1-.8.2-1.2c.1-.4 0-.7-.3-.9h-2.4l-.1.1-.9-.1-.3-.8c-.1-.4 0-.7.3-1.1 1.1 0 2-.3 2.7-.7 0-.3-.2-.5-.5-.6l-1.6.3h-.8l-.3-1.7-.3-.2c-.4-.1-.7 0-1 .1l.2 1.6-.1.4-1.4.3h-1.1l-.9.3.3.4.7.5 2-.4.5.1.3.7-.1.8-2.2.7-.9-.1c-.4-.1-.7 0-1 .1l.1 1v2.5c0 .9.3 1.7.7 2.4l.5.3h.4l.1-.3 1-.4h.7c-1.1 1.8-2.3 3.4-3.8 4.8l-.1.3.6.6h.7l.1-.3.4-.1 2.7-3.8h.5v2.1c0 .5-.1.8-.5 1.1v.3l.7.6.6-.1.5-1.2-.1-.3.1-.5-.1-.4V203l.2-.2c1.7 1.2 3.4 2.2 5.1 3l.4-.2-.4-.8c-1.8-1.1-3.7-2.2-5.6-3.4zm-4.3-3.8c-.1-.5 0-.8.3-1.2l.4.1 1.6-.4.8.4-.2 1.2-2.1.4h-.4l-.4-.5zm3.1 2.4l-2.1.4-.6-.1-.3-.6v-.6l2.2-.4h.5l.4.5-.1.8zm1-3c-.1-.4.1-.8.4-1.1h1.9l.3.3-.1.6v.3l-1.4.3c-.5.1-.9 0-1.1-.4zm.3 1.4l.7-.3c.4-.1.8 0 1.2.3l-.3 1.1-1.1.3-.7-.4.2-1zm15.2 4.2h-.6c-.6.9-1.3 1.8-2.1 2.6l.1.4.7.3v-.1h.3l2.1-2.5-.1-.4-.4-.3zm21.3-2.9c-.4-.4-.8-.7-1.3-.8h-1c-.7.2-1.3.6-1.8 1.1-1.1 1.1-1.7 2.5-1.8 4l.1.3c.6.7 1.3 1.2 2.1 1.3.1.4.3.7.5 1l.4.1.5-.1c1.3-1.4 2.3-2.9 3-4.5v-.9c-.1-.5-.3-1-.7-1.5zm-2.3 4.9v.2h-.1l-.5-.1-.3.1c-.4 0-.8-.2-1-.6 0-1.5.6-2.7 1.6-3.7l1-.4.7.1.6 1.1c-.3 1.3-1 2.4-2 3.3zm-12.4-3l-.5.2.2.4c1 .8 2 1.5 3 2 .3.1.5 0 .6-.1l-.2-.8c-1-.6-2-1.2-3.1-1.7zm-2.4-.2l.2-1.6c.8 0 1.5-.2 2-.7l-.2-.8.1-.4v-1.4l-.3-.5-.5-.2h-1.6c-.9.1-1.7.4-2.5.7h-1l-.1.1.1.3v1.3l.2 1.1-.1.6.2.5.7.4.9-.5.7.2v1.6l-.1.1v1.8l.1.1v2.2l.7.4.7-.1-.2-1.6v-3.6zm-1.6-2.2h-.5l-.4-.5v-1.3c.7-.4 1.4-.7 2.2-.9.4 0 .8 0 1.1.3.1.8-.2 1.4-.7 1.9l-1.7.5zm-70 3.4l-.3.3c-.8.6-1.7 1.1-2.7 1.5h-.7c-.4-.1-.7-.4-.9-.8v-.4c.7-1.2 1.6-2.3 2.6-3.3l.1-.3h.2l1.3-1.1-.1-.5-.6-.3c-1.1.7-2.2 1.6-3.1 2.7l-.3-.1-2.4-4.9-.6-.5c-.3 0-.6 0-.8.2 1 2.1 2.1 4.1 3.3 6.2l-.8 1.3v1.1c.4.8.9 1.4 1.7 1.8v.1h1.5c1.1-.4 2.3-1 3.4-1.6l.1-.3.3-.2-.5-.9h-.7zm12-4.2v-1.1l.5-2.5-.1-.3-.5-.3-.5.1-.7 4.2v1.6l.4 1.4.6.4h.3l.3-.5c0-.4-.1-.7-.4-.9l.1-2.1zm-7.7-25.7l-.1-.5-.7-.3c-.9.2-1.7.4-2.6.7l-.3-.1-.7-1.7.1-.4 1.1-.3.5.1c.6-.1 1-.3 1.4-.6v-.3l-.7-.6-2.2.4h-.6v-.6l-.5-.5c-.3-.1-.5 0-.7.1l.2.8-.1.3-2.5.6h-1c-.3 0-.4.1-.5.3v.3l.7.7h.8l2.1-.6h.8l.7 1.9-.1.3c-1.4.3-2.8.8-4.2 1.2v.3l.7.6h.8l2.8-.9h.6l.9 1.9c0 .5-.2.9-.5 1.2v.4l.5.3v.1h.2c.5-.2.9-.6 1.1-1.1-.2-.9-.5-1.8-1-2.7v-.3c1.1-.3 2.1-.6 3-1zm-17.5-3.2l-.2-.4-.6-.3-.6.2.7 4.9v1.1c0 .5.2.8.5 1.1l.6-.2v-1.6l.1-.1V173l-.5-2.5v-1zm34.3 4l.3-1v-.6l-.3-.1.2-.4-.2-.6-.7-.3c-.9.1-1.6.3-2.4.6l-.6-.1.2-.8v-.5l-.5-.6c-.5-.1-.8 0-1 .3v2.1l-.1.1c-1.5.3-2.9.7-4.4 1.2v.4l.7.6c1.2-.2 2.2-.5 3.2-.9h.5l.1.8-.2 1.1-1.8 1.1c-1.1 1.1-2 2.2-2.6 3.5v1.2l.6 1.1.7.4c1 0 1.8-.3 2.6-.9l.1-.3.5-.3.3.1.1.3.6.4c.5.1.9-.1 1.1-.4-.3-.3-.5-.7-.6-1.2.7-1.2 1.4-2.5 2.2-3.7.2-.5.6-1 1-1.4l.6.3c.6.6 1 1.3 1.1 2.1v1.8c-.1 1.1-.5 2-1 2.9 0 .4.2.6.5.8l.6-.2c.6-1.1.9-2.3 1.1-3.6v-1.6c-.1-1.1-.6-2.1-1.4-2.9l-1.1-.8zm-5 5v.6l-2.1 1.7-.4.2h-.7l-.2-.6c.2-.8.6-1.7 1.1-2.5l.3-.1.4-.6h.2l1.1-.9.3.1-.1.3.1 1.8zm1.4-1v.2l-.3-.2.1-.7v-1.3l.1-.1 1.1-.5.4.1c-.2.9-.7 1.8-1.4 2.5zm2.2-3.8l-1.9.4-.5-.2.2-1.4 2.2-.7.5.2c0 .6-.2 1.2-.5 1.7zm13.7 23.3c-2.1.1-3.9.9-5.4 2.5-.7 1.1-1.1 2.4-1.2 3.8v1l.2.6c.3.3.7.5 1.2.5h1c.6-.2 1.1-.5 1.6-1 1.5-1.9 2.6-4 3.3-6.2l.7.3c1.3 1.4 2.2 2.9 2.5 4.6 0 .4-.1.7-.3 1.1.1.4.3.7.7.8h.5l.3-.4v-1.3c-.3-2-1.1-3.7-2.6-5.2-.7-.7-1.6-1-2.5-1.1zm-.7 2.2c-.8 1.8-1.9 3.5-3.4 5l-.6.3c-.3 0-.5-.1-.7-.3 0-1.4.4-2.7 1.1-3.9 1-1 2.2-1.7 3.4-2.2l.5.2-.3.9zm5.4-25.1h-2.2c-1.7.2-3.3.7-4.7 1.6l.1.6.4.4c1.6-.8 3.2-1.3 4.9-1.5h1.7l.5.3.3.4c-.4 2.2-1.3 4.2-2.7 6l.5.6.5-.1c1.5-1.7 2.5-3.6 2.9-5.8 0-.7-.2-1.2-.5-1.7-.5-.5-1.1-.7-1.7-.8zm-21 24.4l-.1-.3v-1c0-.9-.2-1.6-.6-2.4l-.8-.3-.3.2c.2.7.4 1.4.5 2.2v5.1l-.1.1v1.7c0 .4-.1.8-.3 1.1l.4.9.8.2.3-.9v-2.3l.1-.1v-1.1l.1-.1-.1-.3v-1.1l.1-.1-.1-.3.1-1.2zM271.4 52.8c4.4.6 8.7 1.1 12 .9 6.9-.4 10.2-4.2 9.5-8.8-3.3 2.1-12.3 3.1-22.5 2.3-5.7-.4-13.5-1.5-19.6-1.1-5.5.3-8.5 2-9.3 4.3-.6 1.7.1 3.3 2.4 4.5-.6-2.6 1.6-4 6.9-4.5 3.4-.3 8.7.5 14.2 1.4-2.5 1-4.7 2.8-6 5.6-3.1 6.2-6 21.8-9.9 28.9-1 1.9-2.6 3.8-4.4 4.7 1 .5 2.7 1 4.6 1 3.2 0 6.8-1.1 8.9-4.9 3.8-7.2 5.5-22.9 8.8-29.1.9-1.6 2.1-4.2 4.4-5.2zm-41.9 17.9c.7-2.3.1-4-1.8-4.5-2.1-.6-5.1.3-6.6.9.6.8.9 2.1.5 3.9-.2.9-.8 2.8-1.7 5.2-2.2 6.2-6.9 11.2-11.6 12.7-2.7.9-4.4-.7-4.5-2.1-.1-3.7 3-10.7 5.3-16 .9-2 .4-4-1.5-4.5-2.1-.6-5.8.3-7.3.9.6.8 1.2 2.2.5 3.9-1.5 3.4-4.1 9.3-4.7 13.5-2.3 2.1-4.9 3.8-7.1 4.5-2.7.9-5.1.3-5.2-2-.1-3.8 3.5-11 5.8-16.3.9-2.1 0-4.1-2.4-4.6-3.8-.8-10.1 1.9-15.1 8.8.5-1.4.9-2.8 1.3-4.2.9-2.1 0-4.1-2.4-4.6-4.2-.9-10.9 2.6-15.9 9.4.5-1.6 1.1-3.2 1.5-4.8.7-2.3.1-4-1.8-4.5-2.1-.6-5.1.3-6.6.9.6.8.9 2.1.5 3.9-1.3 4.9-3.8 11.9-5.2 15.4-.8 1.9-1.3 3-2.3 4.6.9.6 2.2 1.1 4.1 1.1 3 0 4.9-1.7 5.7-4.2.1-.2.1-.5.2-.7 3.6-9.9 7.7-13.6 11.1-15 1.1-.5 2.6.1 2.2 1.6-.4 1.5-2.8 9.2-4.2 12.6-.8 1.9-1 3-1.9 4.6.9.6 1.8 1.1 3.7 1.1 3 0 4.9-1.7 5.7-4.2l.3-.9c3.8-10.7 6.7-13.2 10.5-14.8 1.1-.5 2.3.1 1.8 1.5-1.8 4.1-4.8 9.4-4.3 13.3.4 3.3 3.1 5.2 7 5.2 4.1 0 8.9-2.2 13-5.7v.5c.4 3.3 2.4 5.2 6.3 5.2 5.1 0 10.9-2.9 14.5-7.5-.9 2.2-1.8 4.5-2.8 6.7-.3.8-.7 1.5-1.1 2.2-.3 0-.5.1-.8.1-8.3 1.1-18.5 2.2-22.9 6.2-4.9 4.5-1.7 9.9 8.2 9 10.1-.9 17.2-6.3 22.4-14.5 7-2.5 12.5-6.7 14.4-11.6-3.4 3.4-7.7 6.3-12.5 8.2 4.6-9 6.9-17.6 7.7-20.4zm-32.2 36.4c-4.3.3-5.3-2.2-.1-6.3 4.3-3.4 9.6-3.7 14-4.3-3.5 5.9-8 10.2-13.9 10.6zM21.9 66.9c-.8-.1-1.7-.2-2.6-.3.9-3.4 1.8-6.5 2.9-8.5 1.1-2.1 2.5-5.8 6.3-5.8 5.5.8 11 1.6 15.2 1.3 6.9-.4 10.2-4.2 9.5-8.8-3.3 2.1-12.4 3.1-22.5 2.3-5.7-.4-13.5-1.5-19.6-1.1-5.5.3-8.5 2-9.3 4.3-.6 1.7.1 3.3 2.4 4.5-.6-2.6 1.6-4 6.9-4.5 2.7-.2 6.6.2 10.8.9-3.2.6-6 2.7-7.7 6.1-1.1 2.2-2.1 5.5-3.2 9.3-3.5.4-6.7 1.5-8.1 3.7 2-.5 4.5-.5 7.2-.4-1.7 6-3.6 12.4-5.7 16.3-1 1.9-2.6 3.8-4.4 4.7 1 .5 2.5 1 4.4 1 3.1 0 6.6-1.1 8.7-4.9 2.1-3.9 3.6-10.3 5.1-16.3 1.3.2 2.6.4 3.8.5 8.4 1.2 11.5-1 11.9-5-2.5 1.5-5.4 1.5-12 .7zm105.2-14.5c-2.1-.6-5.8.3-7.3.9.6.8.8 2.1.5 3.9-.6 3.8-2.1 8-3.7 12.2-.9-2.3-3.1-3.5-6.5-3.5-8.1 0-15.4 6.8-17.5 14.5-.6 2-.7 3.8-.4 5.3-1.9 1.6-4 2.8-5.8 3.4-2.7.9-5.1.3-5.2-2-.1-3.8 3.5-11 5.8-16.3.9-2.1 0-4.1-2.4-4.6-3.9-.8-11.4 2-17 9.1.5-1.5 1-3 1.4-4.5.7-2.3.1-4-1.8-4.5-2.1-.6-5.1.3-6.6.9.6.8.9 2.1.5 3.9-.6 2.4-1.5 5.2-2.5 7.9-2.6 5.1-7.6 8.6-11.7 9.9-2.7.9-4.4-.7-4.5-2.1-.1-3.7 2.9-9.7 5.2-15 .9-2 .4-4-1.5-4.5-2.1-.6-5.8.3-7.3.9.6.8 1.2 2.2.5 3.9-1.8 4.1-5.1 11.1-4.7 15 .4 3.3 2.4 5.2 6.3 5.2 5.2 0 12.1-3.6 16.1-8.6-.4 1.1-.8 2.1-1.1 2.9-.8 1.9-1.3 3-2.3 4.6.9.6 2.2 1.1 4.1 1.1 3 0 4.9-1.7 5.7-4.2.1-.2.1-.4.2-.6 3.9-10.9 8.5-13.5 12.3-15.1 1.1-.5 2.3.1 1.8 1.5-1.8 4.1-4.8 9.4-4.3 13.3.4 3.3 3.1 5.2 7 5.2 3.8 0 8.2-1.9 12.2-5 1.1 3.2 3.9 4.9 6.8 5 4.4.2 8.4-1.9 11.5-5 .2 2.9 2.5 5 6.6 5 4.3 0 8.7-1.8 11.5-5.2-2.7 1.7-6.3 2.6-8.3 2.1-1.6-.4-2.3-1.5-2.2-3.1.2-5.5 7.6-23.2 10.2-28.9.8-2.4.2-4.4-1.6-4.9zm-23.5 35.2c-4 0-3.7-4.4-2.8-8.5 1.2-5.1 5-10.5 9.5-10.5 4.4 0 4.2 4.6 3.2 7.9-.4 1-.8 2-1.1 3-1.7 3.9-4.9 8.1-8.8 8.1zm184.2-21.5c-10.5-.9-17.4 5.5-19 12.4-2 8.3 3.5 12.7 9.4 13.4 10.7 1.2 18.6-4.4 20.3-12.9 1.5-7-2.4-12.2-10.7-12.9zm1.7 13.5c-1.9 5.5-5.4 10.2-9.4 9.5-4.7-.8-4.3-5.8-2.6-10.8 1.6-4.9 5.3-10.2 9.8-9.6 4.7.5 3.5 7.1 2.2 10.9zm108.3-13.5c-10.5-.9-17.4 5.5-19 12.4-.4 1.8-.5 3.3-.3 4.8-3.3 3.1-7.5 5.8-12 7.6 4.7-8.8 7-17.5 7.8-20.3.7-2.3.1-4-1.8-4.5-2.1-.6-5.1.3-6.6.9.6.8.9 2.1.5 3.9-.2.9-.8 2.8-1.7 5.2-2.2 6.2-6.9 11.2-11.6 12.7-2.7.9-4.4-.7-4.5-2.1-.1-3.7 3-10.7 5.3-16 .9-2 .4-4-1.5-4.5-2.1-.6-5.8.3-7.3.9.6.8 1.2 2.2.5 3.9-1.2 2.7-3.1 7.1-4.1 10.9-3.5 3.2-8.1 6.2-11.9 6.2-6.5 0-7.8-7.9-7.3-12.8.2-1.6.6-3 1.9-3.6 1.4-.7 4.6.9 7.1 1.7 2.5.8 4.6-.5 5.5-1.8.8-1.3 1.6-6-5-5.5-6 .4-13.7 9.1-18.2 14.7 2.9-8 7.3-19.6 8.6-23.8.7-2.3-.1-4-2-4.5-2.1-.6-5.3.3-6.8.9.6.8.9 2.1.5 3.9-1.3 4.9-9.2 25.6-10.6 29.1-.8 1.9-1.3 3-2.3 4.6.9.6 2.3 1.1 4.2 1.1 2.8 0 4.8-1.5 5.7-3.8 2.1-3.8 4-5.8 6-8.7.1 11.3 6.3 13.1 11.2 12.4 4.3-.6 9.5-4.2 13-7.7-.2 1-.2 1.9-.1 2.7.4 3.3 2.4 5.2 6.3 5.2 5.1 0 10.8-2.9 14.5-7.5-.9 2.2-1.8 4.5-2.8 6.7-.3.8-.7 1.5-1.1 2.2-.3 0-.5.1-.8.1-8.3 1.1-18.5 2.2-22.9 6.2-4.9 4.5-1.7 9.9 8.2 9 10.3-.9 17.5-6.5 22.7-15 5.5-2.4 10.9-5.9 14-9 1.3 4.3 5.2 6.6 9.4 7.1 10.7 1.2 18.6-4.4 20.3-12.9 1.2-7.1-2.7-12.3-11-13zm-55.8 41c-4.3.3-5.3-2.2-.1-6.3 4.3-3.4 9.6-3.7 14-4.3-3.6 5.9-8 10.2-13.9 10.6zm57.4-27.5c-1.9 5.5-5.4 10.2-9.4 9.5-4.7-.8-4.3-5.8-2.6-10.8 1.6-4.9 5.3-10.2 9.8-9.6 4.7.5 3.5 7.1 2.2 10.9zm-357.2-19c-.6 2.1.8 4.2 3.1 4.6s4.7-.9 5.2-3.1c.6-2.1-.8-4.2-3.1-4.6-2.3-.4-4.6.9-5.2 3.1zm374.3 23.2c-2.5-.5-5 1-5.6 3.3-.6 2.3.9 4.5 3.4 5s5-1 5.6-3.3c.6-2.3-.9-4.5-3.4-5zM87.4 8.6c0-.6-.3-1-.9-1-.4-.1-.6.1-.7.2-.2.2-.3.4-.3.7v.1c-.8 0-1.7.2-2.5.4 0-.7.1-1.5.1-2.2 2.3-.2 4.1-.6 5.3-1.1.6-.2.9-.7.9-1.3 0-.4-.1-.7-.4-1-.5-.5-1.3-.6-1.9-.1-.6.3-1.8.6-3.6.9.1-.4.1-.7.2-1 .2-.4.2-.7.2-.9-.1-.5-.3-.9-.8-1.3-.2-.2-.6-.5-1.1-.8s-1-.2-1.3.3c-.2.4-.2.8.1 1.1.1.1.2.2.3.6.1.3.1.5.1.6-.1.5-.2 1.1-.2 1.7h-1c-1.1 0-2.3-.1-3.3-.4-.4-.1-.8 0-1 .4-.2.3-.2.6-.2.7 0 .2.1.4.4.6 1.1.8 2.7 1.2 4.6 1.1h.4c0 .9-.1 1.8-.1 2.8-1.7.8-3.2 1.9-4.3 3.2-1.3 1.5-1.9 3-1.9 4.6 0 .9.3 1.7.9 2.3.6.6 1.4.9 2.3.9 1.1 0 2.3-.4 3.5-1.1.2.6.6.9 1.3.9.4 0 .7-.1.9-.4.3-.3.4-.6.4-.9 0-.2-.1-.5-.2-.7 0-.2-.1-.5-.1-.8 1.7-1.8 2.9-4.1 3.6-6.7 1.3.2 2.3.7 3.1 1.5.7.7 1 1.6 1 2.7 0 1.5-.7 2.8-2 4.1-1.2 1.1-2.6 1.9-4.2 2.3-.5.1-.8.5-.7 1.1.1.5.4.8.9.8h.2c2.3-.4 4.2-1.2 5.7-2.5 1.9-1.5 2.9-3.4 2.9-5.6 0-1.7-.6-3.2-1.7-4.4-1.4-1.4-3-2.1-4.9-2.4zm-4.5 2.6c.6-.2 1.3-.3 1.9-.4-.4 1.2-1 2.4-1.8 3.4-.1-.9-.1-1.9-.1-3zm-2.2 5.5c-1 .8-1.9 1.2-2.8 1.3-.6 0-.8-.1-.9-.2 0 0-.1-.1-.1-.3 0-1.1.4-2.2 1.2-3.2.7-.8 1.5-1.6 2.5-2.2-.1 1.7 0 3.1.1 4.6zM116 7.3c.7-.2 1.1-.7 1.1-1.3 0-.4-.1-.7-.4-.9-.3-.3-.6-.4-1-.4-.3 0-.5.1-.7.2-.5.1-1 .2-1.5.2.2-.5.3-.9.4-1.1.1-.3.2-.4.3-.4.3-.4.4-.7.4-1 0-.9-1.1-1.6-1.9-2-.5-.2-1-.1-1.3.5-.2.4-.1.7.1 1 .2.2.2.6.1 1.1-.2.7-.4 1.3-.6 2-1.6 0-3.1-.1-4.5-.3-.4-.1-.7.1-1 .4-.2.3-.2.6-.1.7 0 .2.1.4.4.6.9.6 2.3.9 4.5 1-1 3-2.2 6.3-3.7 10-.2.2-.3.5-.3.8 0 .4.1.7.4.9.3.3.6.4.9.4.6 0 1-.3 1.2-.8 1.5-3.4 2.8-7.2 4-11.4 1 .1 2.1 0 3.2-.2zm7-1.5c-1.3-.6-2.6-.9-4-1.1-.6-.1-1 .3-1.1.8s.2 1 .7 1.1c.7.2 1.5.4 2.1.8-.9.2-1.7.7-2.4 1.4-.8.8-1.3 1.8-1.3 2.9 0 .7.1 2.2.4 4.5-.4 0-.8-.1-1.2-.1-1.6 0-2.8.4-3.6 1.1-.6.5-.9 1.1-.9 1.8 0 1 .4 1.8 1.2 2.5.8.7 2 1.1 3.4 1.1h.1c1.1 0 2-.3 2.7-1 .6-.5.9-1.3 1-2.1.8.4 1.6.9 2.3 1.5.2.5.7.7 1.2.7.4 0 .7-.1 1-.4s.4-.6.4-1-.2-.8-.5-1.1c-1.3-1.1-2.9-2-4.6-2.5-.4-2.7-.6-4.4-.6-5.1 0-1.6.9-2.3 2.7-2.3h.1c1 0 1.4.1 1.5.2.5.3 1 .2 1.4-.2.2-.2.3-.5.3-.9s-.1-.7-.3-1c0-.5-.7-1-2-1.6zm-5.1 13.1c0 .4-.1.7-.3.9-.3.3-.8.4-1.5.4-1.7 0-1.7-.7-1.7-1 0 0 0-.2.2-.3.3-.3.9-.5 1.8-.5h.5c.3 0 .7.1 1 .2v.3zm30.7-9.4c.1.1.4.2.7.2.8-.1 1.4-.2 2-.2 0 .1-.1.2-.1.4 0 .3.1.6.4.8s.6.2.9.2c1.1-.3 1.7-.4 2-.3.2.3.6.4 1 .4.8 0 1.3-.5 1.3-1.3 0-.3-.1-.5-.3-.8-.7-1.2-2.2-1.7-4.4-1.7-.8 0-1.9.3-3.2.8-.5.2-.7.6-.6 1.1 0 .1.2.3.3.4zm6.6 9.5c-1.1.1-2.2.2-3.4.1-2.1-.1-3.2-1-3.3-2.8-.1-.6-.5-.9-1.1-.9-.5.1-.8.4-.9 1-.1 3.3 1.7 5.2 5.2 5.4h1.3c1 0 1.9-.1 2.8-.2.4 0 .7-.1 1-.4.3-.3.4-.6.4-.9 0-.4-.1-.7-.4-1-.5-.4-1-.5-1.6-.3zm-7.6-11.7c0-.8-.5-1.3-1.3-1.3-.2 0-.3 0-.5.1-.4 0-.7.1-1.2.2.4-1.6.4-2.1.4-2.3 0-1-.4-2.3-2.4-2.8-.4-.1-.6 0-.8.1-.1.1-.3.3-.4.7-.1.5.1.9.5 1.1.1.1.3.2.3.5v1.1c0 .5-.1 1.3-.3 2.3-.6.1-1.1.2-1.4.2-1.3.1-1.8-.1-2.1-.2-.5-.3-1-.2-1.4.3-.3.4-.2.9.2 1.3.9.8 1.9 1.2 2.9 1.2.3 0 .7 0 1.2-.1-.3 1.2-.8 3-1.4 5.1-.9 3.2-1.4 5.2-1.5 6.1-.1.2-.1.4-.1.6 0 .4.1.7.4 1 .3.3.6.4 1 .4.7 0 1.2-.4 1.3-1.1.3-1.7.8-3.9 1.5-6.4.6-2.1 1.1-4.1 1.6-6.2 1.2-.3 2-.4 2.4-.5.7-.3 1.1-.7 1.1-1.4zm31.1 2c-.3-.2-.6-.2-.8-.1-.2 0-.4.2-.6.5-.3.5-.1 1 .4 1.3 3.1 1.7 4.7 3.6 4.8 5.6 0 1.1-.3 2-.9 2.8-.7.7-1.5 1.1-2.6 1.1-1.2 0-2-.3-2.5-.8-.6-.6-.9-1.7-.9-3.2.9 0 1.8 0 2.6-.1.7 0 1.2-.5 1.2-1.2 0-.8-.5-1.3-1.3-1.3h-.3c-.9 0-1.6.1-2.2.1.1-1.1.3-2.4.5-3.9h.2c.3 0 .6-.1.9-.4.2-.2.4-.6.4-.9 0-.7-.4-1.2-1-1.3.3-2 .6-3.4.8-4.5.1-1.1-.5-2-1.8-2.8-.5-.3-1-.2-1.3.3-.2.3-.2.7 0 1.1.3.5.5.9.4 1.3-.2 1.9-.4 3.4-.6 4.5-.7-.3-1.4-.9-2-2-.3-.4-.7-.6-1.2-.4-.5.2-.8.7-.5 1.3.5 1.3 1.2 2.3 2.1 2.9-.1 0-.2.1-.3.1-.6.3-1.2.8-1.6 1.4-.6.7-.8 1.5-.8 2.2 0 1.7 1.2 2.8 3.5 3.3 0 2.3.5 4.1 1.6 5.2 1 1.1 2.5 1.6 4.4 1.6 1.9 0 3.5-.6 4.7-1.8 1.1-1.2 1.6-2.6 1.6-4.4-.4-2.6-2.6-5.1-6.9-7.5zm-5.7 1.6c.4-.3.5-.7.4-1.1.1 0 .2.1.3.1-.2 1.6-.4 2.9-.5 3.8-.6-.2-1.3-.4-1.3-.9 0-.8.3-1.4 1.1-1.9zm41.7-.7c-.6-.2-1.4-.3-2.4-.3-.6 0-1.9.1-4 .2h-.7l.1-2.1v-.8c0-.3-.1-.5-.2-.8 1.6-.3 2.7-.5 3.3-.7 1.1-.3 1.4-1 1.4-1.5 0-.4-.1-.7-.4-1.1-.4-.5-.8-.6-1-.6-.5 0-.8.2-.9.6-.1.1-.4.2-.9.3-.7.2-2 .5-4 .9-2.4.5-4.6.9-6.6 1.1-.5.1-.8.4-.8 1 0 .4.1.6.3.7.1.1.4.3.7.2 1.8-.1 4-.3 6.4-.6v.6c0 1.4 0 2.4-.1 2.9-1.3.1-2.3.1-3.1.2-3.4.2-4.6.1-5 0s-.6 0-.7.1c-.1.1-.3.3-.4.6-.1.4.1.8.5 1 .8.5 1.8.7 3.1.7.6 0 1.8-.1 3.6-.2.8-.1 1.4-.1 1.8-.1-.2 1.7-.7 3.1-1.3 4.2-.9 1.5-2.4 2.7-4.5 3.6-.3.1-.5.3-.5.5-.1.2-.1.4.1.7.2.4.5.6.8.6.1 0 .2 0 .3-.1 2.9-.9 5-2.4 6.2-4.5.8-1.4 1.4-3.2 1.6-5.4 3-.2 5-.1 6.2.1.5.3 1.2.3 1.6-.2.2-.3.4-.6.4-.9.1-.2-.3-.7-.9-.9zm25.1-.2c-.4-.1-.7-.2-1.1-.2-.3 0-.7.1-1.3.2l-5.6 1.1c-.2-1.1-.2-1.5-.2-1.6 0-.6-.1-1.2-.4-1.6-.3-.3-.7-.6-1.3-.8-.4-.1-.7 0-1 .3-.2.2-.2.5-.2.6 0 .2.1.4.3.6 0 0 .2.2.4 1.2.1.8.2 1.4.3 1.9-.5.1-1.1.2-1.9.4-1.2.2-2.1.4-2.6.3-.3 0-.5.1-.6.2-.1.1-.2.3-.2.6s.1.6.4.8c.6.4 1.4.5 2.6.4.2 0 .7-.1 2.8-.6.7 3.6 1.2 6.2 1.5 7.8.1.6.5.9 1.1.9.7 0 1.1-.4 1.1-1.1 0-.2-.1-.4-.2-.6-.6-3.2-1.1-5.7-1.5-7.5 2.6-.6 4.4-1 5.3-1.1h.2c-1 1.3-2.2 2.6-3.5 3.7-.3.3-.4.7-.2 1 .2.3.4.4.5.4.2 0 .4.1.7-.1 1-.6 2-1.4 3-2.3.5-.5 1-1.1 1.7-1.8l.3-.3c.6-.7.8-1.2.8-1.6-.3-.5-.5-.9-1.2-1.2zm27-.2c-1.6 1.6-3.7 3.1-6.2 4.5-2.1 1.2-3.9 2.1-5.5 2.6-.2.1-.3.1-.5.1V8.8c0-.1 0-.4.1-1 .3-.5.3-.9.3-1.2 0-.6-.3-1.2-1-1.7-.4-.3-.8-.6-1.2-.7-.3-.2-.7-.1-1 .1-.3.2-.4.5-.4.6 0 .2 0 .4.2.7.4.5.5 1 .5 1.7v11.3c0 .5.2.8.5 1 .3.2.7.3 1 .3.2 0 .5 0 1.3-.3l.4-.1c4.9-1.7 9.3-4.5 12.9-8.4.2-.3.3-.5.3-.7 0-.2-.1-.4-.3-.7-.4-.3-.9-.3-1.4.1zm12.4-3.1c1.7.6 3.1 1.2 4.2 1.8.3.3.6.5 1.1.5.4 0 .7-.1 1-.4.3-.3.4-.6.4-1 0-.3-.1-.7-.6-1.1-1.5-1.2-3.5-1.8-5.8-1.8-.6 0-1 .4-1 1 .1.5.3.8.7 1zm15.2 2.9c-2.8 2.8-5.7 5-8.6 6.6-1.8 1-3.4 1.6-4.8 2-.5.1-1 .1-1.4-.1-.3-.2-.6-.1-.8 0-.2.1-.4.2-.5.6-.2.4-.1.8.3 1.1.9.7 1.8 1.1 2.7 1.1.2 0 .4 0 .5-.1 2-.5 4.3-1.5 6.6-3.1 2.7-1.8 5.2-4.1 7.5-6.8.3-.4.3-.9-.1-1.3s-.9-.4-1.4 0zm29 .4c-3.1 2.9-6.2 5.1-9.3 6.7-2.6 1.3-3.8 1.6-4.3 1.6-.2 0-.6-.1-1.3-.5-.2-.1-.3-.1-.5-.1-.6 0-1 .4-1 1 0 .2 0 .3.1.5.6 1.3 1.4 1.9 2.4 2h.1c.4 0 1.1-.1 3-.9s3.8-1.8 5.7-3.1c2.4-1.6 4.6-3.6 6.4-5.7.4-.4.3-1-.1-1.4-.4-.5-.9-.4-1.2-.1zm-12.5 3.3c.8 0 1.3-.5 1.3-1.3 0-.2-.1-.4-.1-.6-.4-.7-1.1-1.3-2-1.7-.8-.4-1.8-.5-2.7-.6-.6 0-1 .3-1 .9 0 .5.3.8.7.9 1.2.4 2.1.9 2.7 1.5.1.6.5.9 1.1.9zm10-6.7c0 .3.1.6.3.8.2.2.5.4.9.4h.1c.4 0 .7-.1.9-.3.2-.2.3-.5.3-.9 0-.3-.1-.5-.2-.7-.6-1-1.6-1.8-2.9-2.3-.3-.1-.5-.1-.7 0-.1.1-.3.2-.5.5-.2.4-.1.8.3 1.1.7.4 1.2.9 1.5 1.4zm-11.7-1.7c1.2.7 2.1 1.3 2.6 2 .2.6.6.9 1.2.9.8 0 1.3-.5 1.3-1.3 0-.9-.6-1.7-1.8-2.4-.9-.5-1.8-.8-2.7-1-.4-.1-.6 0-.8.1-.1.1-.3.3-.4.6 0 .4.2.8.6 1.1zM323 2c-.3-.1-.5-.1-.7 0-.1.1-.3.2-.4.5-.2.4-.1.8.3 1.1.7.6 1.3 1.1 1.7 1.7 0 .7.5 1.1 1.3 1.2.4 0 .7-.1.9-.4.3-.2.4-.6.4-.9 0-.2 0-.3-.1-.5-.6-1.3-1.7-2.2-3.4-2.7zm17.6 14.9c.5 0 .9-.3.9-.9l1.1-11.9c0-.5-.1-1-.5-1.4s-.9-.6-1.4-.6c-.5 0-1 .2-1.4.6s-.6.9-.5 1.4c.4 5 .7 8.9.9 11.9 0 .5.4.9.9.9zm1.4 1.4c-.4-.4-.8-.6-1.4-.6-.5 0-1 .2-1.4.6s-.5.8-.5 1.4c0 .5.2 1 .6 1.4s.8.6 1.4.6c.5 0 1-.2 1.4-.5.4-.4.6-.8.6-1.4-.1-.6-.3-1.1-.7-1.5z"></path></svg>