<svg xmlns="http://www.w3.org/2000/svg" viewBox="0 0 39.4 39.4"><defs><style>.cls-1{fill:#1baad1;}.cls-2{fill:#fff;}</style></defs><title>about</title><g id="Layer_2" data-name="Layer 2"><g id="Layer_1-2" data-name="Layer 1"><path class="cls-1" d="M19.7,0A19.7,19.7,0,1,1,0,19.7,19.67,19.67,0,0,1,19.7,0Z"/><path class="cls-2" d="M2.3,19.7a17.4,17.4,0,0,0,34.8,0h0a17.4,17.4,0,0,0-34.8,0"/><path class="cls-1" d="M30.1,11.6c-1.3.8-4.9,1.2-8.8.9a48.41,48.41,0,0,0-7.7-.4c-2.2.1-3.3.8-3.7,1.7-.2.7,0,1.3,1,1.8-.2-1,.6-1.6,2.7-1.8a23.82,23.82,0,0,1,4.3.3,4.21,4.21,0,0,0-3,2.4c-.4.9-.8,2.2-1.3,3.6a4.43,4.43,0,0,0-3.2,1.5,12.3,12.3,0,0,1,2.8-.2A39.18,39.18,0,0,1,11,27.8a5.19,5.19,0,0,1-1.7,1.9,3.87,3.87,0,0,0,1.7.4,3.63,3.63,0,0,0,3.4-1.9,32.45,32.45,0,0,0,2-6.4c.5.1,1,.1,1.5.2,3.3.5,4.5-.4,4.7-2-1,.5-2.2.5-4.7.2-.3,0-.7-.1-1-.1A34.37,34.37,0,0,1,18,16.7c.4-.8,1-2.3,2.5-2.3a33.76,33.76,0,0,0,6,.5C29.1,14.9,30.4,13.4,30.1,11.6Z"/></g></g></svg>