<svg xmlns="http://www.w3.org/2000/svg" viewBox="0 0 39.2 38.9"><defs><style>.cls-1{fill:#1baad1;}.cls-2{fill:#fff;}</style></defs><title>Asset 2</title><g id="Layer_2" data-name="Layer 2"><g id="Layer_1-2" data-name="Layer 1"><g id="Layer_1-2-2" data-name="Layer 1-2"><path class="cls-1" d="M19.6,0A19.51,19.51,0,0,1,39.2,19.3,19.6,19.6,0,1,1,19.58,0Z"/><path class="cls-2" d="M2.3,19.3A17.3,17.3,0,1,0,19.6,2,17.3,17.3,0,0,0,2.3,19.3h0"/><path class="cls-1" d="M29.1,13.9a2.43,2.43,0,0,0-2.4,2.4,3.78,3.78,0,0,0,.2,1l-3.1,1.3-3.1-4.8a2.39,2.39,0,1,0-3.3-2.2h0a2.43,2.43,0,0,0,1.4,2.1l-3,4.7-3.4-1.3a3.09,3.09,0,0,0,.2-.9,2.4,2.4,0,1,0-2.4,2.4h0a4,4,0,0,0,.5-.1l1.8,7.3v2.8a.86.86,0,0,0,.8.8h13a.79.79,0,0,0,.8-.78V25.8l1.6-7.3c.2,0,.3.1.5.1a2.43,2.43,0,0,0,2.4-2.4A2.59,2.59,0,0,0,29.1,13.9Zm-9.4-3.1a.79.79,0,0,1,.8.78v0a.86.86,0,0,1-.8.8.79.79,0,0,1-.8-.78v0A.86.86,0,0,1,19.7,10.8ZM9.3,16.3a.86.86,0,0,1,.8-.8.79.79,0,0,1,.8.78v0a.8.8,0,1,1-1.6,0Zm6.4,3.8a.91.91,0,0,0,1-.3l3-4.7,3.1,4.8a.91.91,0,0,0,1,.3l3.1-1.3-1.2,5.6h-12l-1.4-5.6ZM14,27.9V26.5H25.4v1.4ZM29.1,17.1a.79.79,0,0,1-.8-.78v0a.86.86,0,0,1,.8-.8.8.8,0,1,1,0,1.6Z"/></g></g></g></svg>