<svg xmlns="http://www.w3.org/2000/svg" viewBox="0 0 38.16 33.62"><defs><style>.cls-1{fill:#1baad1;}</style></defs><title>Asset 1</title><g id="Layer_2" data-name="Layer 2"><g id="Layer_1-2" data-name="Layer 1"><path class="cls-1" d="M37.78,18.63,21.68,1.12a3.23,3.23,0,0,0-4.9,0L.38,18.82c-.7.7-.4,1.3.6,1.3h3.6V30a3.59,3.59,0,0,0,3.6,3.6H30a3.59,3.59,0,0,0,3.6-3.6V20h3.6C38.18,20,38.48,19.42,37.78,18.63ZM30,30h-7.2V21A1.78,1.78,0,0,0,21,19.23h-3.6A1.78,1.78,0,0,0,15.58,21v9H8.38V16L18,5.22a1.63,1.63,0,0,1,2.4,0L30,15.92Z"/></g></g></svg>