<svg xmlns="http://www.w3.org/2000/svg" viewBox="0 0 30 29.4"><defs><style>.cls-1{fill:#1baad1;}.cls-2{fill:#fff;}</style></defs><title>find</title><g id="Layer_2" data-name="Layer 2"><g id="Layer_1-2" data-name="Layer 1"><path class="cls-1" d="M15,0A14.85,14.85,0,0,1,30,14.7,14.85,14.85,0,0,1,15,29.4,14.85,14.85,0,0,1,0,14.7,14.85,14.85,0,0,1,15,0Z"/><path class="cls-2" d="M1.7,14.7A13.1,13.1,0,0,0,15,27.7a13.17,13.17,0,0,0,13.3-13A13.1,13.1,0,0,0,15,1.7a13.1,13.1,0,0,0-13.3,13"/><path class="cls-1" d="M21.3,19.1A1.34,1.34,0,1,1,19.4,21L17,18.6l-.1-.1-.1.1a5.71,5.71,0,1,1,2.1-7.8,5.5,5.5,0,0,1-.1,5.8l.1.1Zm-4-7.3a3.81,3.81,0,0,0-6.6,3.8,3.81,3.81,0,1,0,6.6-3.8Z"/></g></g></svg>