<svg xmlns="http://www.w3.org/2000/svg" viewBox="0 0 27.6 27.2"><defs><style>.cls-1{fill:#1baad1;}.cls-2{fill:#fff;}</style></defs><title>ga</title><g id="Layer_2" data-name="Layer 2"><g id="Layer_1-2" data-name="Layer 1"><path class="cls-1" d="M13.8,0A13.72,13.72,0,0,1,27.6,13.6,13.72,13.72,0,0,1,13.8,27.2,13.72,13.72,0,0,1,0,13.6,13.72,13.72,0,0,1,13.8,0Z"/><path class="cls-2" d="M1.6,13.6a12.1,12.1,0,0,0,12.2,12A12.1,12.1,0,0,0,26,13.6h0a12.1,12.1,0,0,0-12.2-12,12.1,12.1,0,0,0-12.2,12h0"/><path class="cls-1" d="M19.2,19.7H8.4A1.42,1.42,0,0,1,7,18.4V9A1.35,1.35,0,0,1,8.4,7.7H19.2A1.42,1.42,0,0,1,20.6,9v9.4A1.35,1.35,0,0,1,19.2,19.7ZM19.2,9H8.4v9.4H19.2Zm-6.4,4.3A2.81,2.81,0,0,1,15.4,15h.4a2,2,0,0,1,2,2H9.7C9.7,14.8,11.1,13.3,12.8,13.3Zm3.5,0a1.5,1.5,0,1,1,1.5-1.5A1.47,1.47,0,0,1,16.3,13.3Z"/></g></g></svg>