<svg viewBox="0 0 50 55" fill="#1baad1"><title>FMTとは?</title><path d="M24.7 0c10.9 0 19.7 8.8 19.7 19.7s-8.8 19.7-19.7 19.7S5 30.7 5 19.7 13.8 0 24.7 0z"></path><path fill="#fff" d="M7.3 19.7a17.4 17.4 0 1 0 34.8 0 17.4 17.4 0 1 0-34.8 0"></path><path d="M5.9 46.8H1.6v2.4h3.3v1.2H1.6v4.1H0v-9h5.9v1.3zm9.9 7.8h-1.5v-7.8h-.2c-.2 1-.4 2-.7 3.1l-1.2 4.7h-1.8L9.2 50c-.3-1-.5-2-.8-3.1h-.1v7.7H6.9v-9h2.5l1.1 4.6c.2.9.5 2 .7 3h.2c.2-1 .4-1.9.7-3l1.2-4.6h2.6v9zm7.9-7.7H21v7.8h-1.6v-7.8h-2.7v-1.3h6.9v1.3zm4-1.4c.1 0 .2.1.2.2 0 .2-.1.3-.1.5s0 .5.1.8c.1.8.2 1.4.4 2 .6-.3 1-.5 1.6-.9.3-.2.6-.4.8-.6.4.4.7.8.8 1.1 0 .1.1.2.1.2 0 .1-.1.2-.2.2-.3.1-.7.2-1.1.3-1 .4-1.9.8-2.7 1.4-1 .7-1.4 1.2-1.4 1.8 0 .7.5 1 1.8 1 1.5 0 2.6-.1 3.5-.3.1 0 .2 0 .2.1.1.3.1.7.1 1.1 0 .1-.1.2-.2.2-1.1.1-2 .2-3.5.2-2.2 0-3.4-.7-3.4-2.2 0-1.3.8-2.1 2.2-3-.3-.9-.5-1.9-.6-2.8-.1-.6-.2-1-.3-1.4.7 0 1.2 0 1.7.1zm7.8.4c.1.1.2.1.2.2s0 .2-.1.3c-.1.1-.1.3-.2.6-.4 1.8-.6 3.4-.6 4.2v1.5c.2-.5.5-1 .7-1.6.2.4.3.5.4.7 0 .1.1.1.1.2s0 .1-.1.2c-.4.9-.5 1.4-.6 1.8v.6c0 .1 0 .1-.1.1-.2.1-.6.2-.9.2-.1 0-.2 0-.2-.1-.3-.8-.5-2.2-.5-3.5 0-1.1.1-2 .5-4.4.1-.4.1-.9.1-1.4.5.1 1.1.3 1.3.4zm4 3.1h-2.4c-.2 0-.2 0-.2-.1 0-.3-.1-.7-.1-1.1.9.1 1.8.1 2.6 0v-1.2c0-.4 0-.7-.2-1.1.7.1 1 .1 1.4.2.1 0 .2.1.2.2s0 .1-.1.2c0 .1-.1.3-.1.4v1.2c.5 0 1.1-.1 1.6-.2.1 0 .2 0 .2.1 0 .2.1.6.1.8 0 .1 0 .2-.1.2-.4.1-1.2.2-1.8.2 0 1.3 0 2.1.1 3.1.7.3 1.3.6 1.9 1.1.1.1.1.1.1.2-.2.3-.3.6-.5.9l-.1.1s-.1 0-.1-.1c-.4-.3-.7-.6-1.3-.9-.1 1-.8 1.5-2.1 1.5s-2.1-.6-2.1-1.6.9-1.6 2-1.6c.3 0 .7 0 .9.1.1-.8.1-1.6.1-2.6zm-.9 3.6c-.5 0-.9.2-.9.6 0 .4.3.6.9.6.6 0 1-.3 1-.8v-.2c-.4-.1-.7-.2-1-.2zm5.4-4.9c.2-1.6 1.3-2.5 3.1-2.5s3 1 3 2.5c0 .8-.3 1.5-1.4 2.4-1 .8-1.1 1.2-1.1 2.3h-1.2V52c0-1.2.2-1.7 1.1-2.5.8-.8 1.1-1.2 1.1-1.8 0-.8-.5-1.3-1.4-1.3-.9 0-1.5.6-1.6 1.7l-1.6-.4zm3.7 5.7V55h-1.6v-1.6h1.6zM35.1 11.6c-1.3.8-4.9 1.2-8.8.9-2.2-.2-5.3-.6-7.7-.4-2.2.1-3.3.8-3.7 1.7-.2.7 0 1.3 1 1.8-.2-1 .6-1.6 2.7-1.8 1.1-.1 2.6.1 4.3.3-1.2.2-2.4 1.1-3 2.4-.4.9-.8 2.2-1.3 3.6-1.4.2-2.6.6-3.2 1.5.8-.2 1.8-.2 2.8-.2-.7 2.4-1.4 4.9-2.2 6.4-.4.7-1 1.5-1.7 1.9.4.2 1 .4 1.7.4 1.2 0 2.6-.4 3.4-1.9.8-1.5 1.4-4 2-6.4.5.1 1 .1 1.5.2 3.3.5 4.5-.4 4.7-2-1 .5-2.2.5-4.7.2-.3 0-.7-.1-1-.1.4-1.3.7-2.5 1.1-3.4.4-.8 1-2.3 2.5-2.3 2.2.3 4.3.6 6 .5 2.6 0 3.9-1.5 3.6-3.3z"></path></svg>